# xmcd
#
# Track frame offsets:
#	150
#	8707
#	18487
#	27955
#	40140
#	54717
#	65652
#	77550
#	90957
#	101772
#	116272
#	128004
#	144572
#	161267
#	173690
#	189015
#	201587
#	210345
#	223387
#	234702
#
# Disc length: 3313 seconds
#
# Revision: 1
# Processed by: cddbd v1.5.1PL0 Copyright (c) Steve Scherf et al.
# Submitted via: audiograbber 1.83.01
#
DISCID=090cef14
DTITLE=Flaco Jimenez - Como Amigos
DYEAR=2003
DGENRE=Tex-Mex, Conjunto
TTITLE0=Suena y quiereme
TTITLE1=Se me olvido otra vez
TTITLE2=Soy chicano
TTITLE3=Mal querido
TTITLE4=Los recuerdos del troquero
TTITLE5=Yo conosco unos ojos
TTITLE6=Prieta casada
TTITLE7=Deje mis padres
TTITLE8=Desolacion
TTITLE9=Como Amigos
TTITLE10=Oivido
TTITLE11=Intida mia
TTITLE12=La traicionera
TTITLE13=Cayo una lagrima
TTITLE14=Celos y sentimiento
TTITLE15=Vidita ma
TTITLE16=Se apago mi estrella
TTITLE17=El barandales del puente
TTITLE18=El corrido de Carasco
TTITLE19=La vieja escalera
EXTD=
EXTT0=
EXTT1=
EXTT2=
EXTT3=
EXTT4=
EXTT5=
EXTT6=
EXTT7=
EXTT8=
EXTT9=
EXTT10=
EXTT11=
EXTT12=
EXTT13=
EXTT14=
EXTT15=
EXTT16=
EXTT17=
EXTT18=
EXTT19=
PLAYORDER=
